<?xml version="1.0" standalone="no"?>
<!DOCTYPE svg PUBLIC "-//W3C//DTD SVG 20010904//EN"
 "http://www.w3.org/TR/2001/REC-SVG-20010904/DTD/svg10.dtd">
<svg version="1.0" xmlns="http://www.w3.org/2000/svg"
 width="700.000000pt" height="700.000000pt" viewBox="0 0 700.000000 700.000000"
 preserveAspectRatio="xMidYMid meet">
<metadata>
Created by potrace 1.14, written by Peter Selinger 2001-2017
</metadata>
<g transform="translate(0.000000,700.000000) scale(0.100000,-0.100000)"
fill="#000000" stroke="none">
<path d="M3300 6974 c-163 -14 -279 -28 -380 -44 -584 -98 -1136 -347 -1604
-722 -129 -104 -429 -404 -528 -528 -627 -789 -882 -1773 -717 -2765 94 -565
324 -1083 695 -1565 113 -147 434 -468 584 -584 534 -413 1115 -649 1795 -728
141 -16 567 -16 710 0 677 78 1258 313 1795 728 148 114 470 436 584 584 614
795 857 1748 695 2730 -93 568 -323 1087 -695 1570 -102 133 -429 465 -552
560 -559 435 -1135 673 -1812 750 -99 11 -492 21 -570 14z m345 -1439 c203
-51 337 -123 575 -305 205 -158 401 -387 475 -554 70 -159 90 -352 51 -496
-20 -71 -74 -194 -105 -238 l-20 -28 97 -1 c372 -3 710 -256 788 -592 9 -36
19 -142 23 -236 8 -163 9 -174 44 -260 158 -400 32 -792 -363 -1131 -242 -209
-534 -297 -822 -250 -301 50 -565 193 -950 516 l-38 32 0 -79 c0 -138 -32
-276 -80 -343 -12 -17 -37 -34 -61 -41 -127 -38 -228 93 -344 446 -30 90 -77
210 -106 266 -92 185 -149 262 -298 403 -418 397 -613 615 -650 725 -14 44
-14 136 0 164 10 18 8 23 -12 36 -48 32 -101 86 -120 122 -21 43 -25 119 -8
167 10 30 7 35 -54 114 -187 241 -308 534 -306 743 0 28 8 80 17 116 15 58 16
70 4 100 -27 67 0 132 76 180 36 23 57 29 101 29 50 0 57 -3 91 -39 52 -55 60
-120 24 -192 -19 -38 -71 -79 -100 -79 -33 0 -44 -32 -44 -129 0 -102 29 -211
90 -336 l48 -100 1 135 c1 182 42 418 92 536 14 34 15 48 6 81 -9 37 -8 47 19
99 38 77 70 99 140 98 63 0 100 -22 126 -75 24 -46 23 -116 -2 -157 -21 -35
-74 -72 -102 -72 -24 0 -41 -38 -67 -143 -70 -286 -66 -510 11 -665 l33 -66
70 -1 c57 0 79 -5 117 -27 26 -14 50 -23 52 -20 2 4 7 39 10 77 12 119 35 230
91 434 63 228 82 279 138 381 115 213 266 369 502 522 137 89 219 119 445 162
50 9 203 -5 295 -29z"/>
<path d="M3260 5379 c-103 -24 -188 -62 -295 -134 -202 -136 -334 -279 -428
-468 -45 -90 -68 -155 -116 -332 -33 -121 -65 -256 -71 -300 -6 -44 -17 -129
-25 -188 -8 -59 -15 -123 -15 -142 0 -33 2 -35 45 -46 93 -24 184 -101 391
-334 39 -44 88 -104 109 -134 l39 -53 58 6 c31 3 113 17 180 31 664 137 1219
453 1398 796 115 221 92 439 -72 676 -146 211 -495 492 -714 574 -191 72 -321
85 -484 48z"/>
<path d="M1922 3850 c-64 -39 -64 -91 1 -130 47 -29 108 -26 146 6 33 27 38
51 20 87 -30 58 -105 75 -167 37z"/>
<path d="M4553 3730 c-91 -24 -119 -38 -224 -116 -170 -126 -353 -225 -584
-317 -214 -85 -519 -171 -683 -193 -29 -4 -54 -10 -57 -14 -2 -4 43 -99 101
-211 121 -233 157 -316 210 -484 37 -118 38 -121 108 -193 225 -231 540 -450
773 -538 290 -109 570 -83 800 74 173 118 322 282 397 437 59 122 79 200 80
315 1 106 -11 165 -60 291 -37 96 -54 205 -54 349 0 183 -46 296 -170 421
-165 166 -417 237 -637 179z"/>
<path d="M2160 3589 c-27 -20 -64 -40 -81 -44 -35 -8 -69 -55 -69 -96 0 -67
181 -275 510 -584 111 -104 219 -210 240 -235 115 -138 235 -369 310 -600 28
-85 70 -193 92 -240 l42 -85 14 45 c22 71 19 273 -7 400 -39 188 -106 368
-226 606 -128 254 -246 439 -366 574 -217 243 -252 272 -351 288 -57 9 -58 8
-108 -29z"/>
</g>
</svg>
