<?xml version="1.0" standalone="no"?>
<!DOCTYPE svg PUBLIC "-//W3C//DTD SVG 20010904//EN"
 "http://www.w3.org/TR/2001/REC-SVG-20010904/DTD/svg10.dtd">
<svg version="1.0" xmlns="http://www.w3.org/2000/svg"
 width="700.000000pt" height="700.000000pt" viewBox="0 0 700.000000 700.000000"
 preserveAspectRatio="xMidYMid meet">
<metadata>
Created by potrace 1.14, written by Peter Selinger 2001-2017
</metadata>
<g transform="translate(0.000000,700.000000) scale(0.100000,-0.100000)"
fill="#000000" stroke="none">
<path d="M3169 6296 c-2 -2 -28 -7 -58 -10 -122 -15 -345 -75 -451 -122 -410
-183 -687 -441 -875 -812 -56 -112 -124 -287 -140 -362 -55 -256 -69 -367 -69
-570 0 -115 9 -294 18 -338 3 -13 8 -51 11 -84 4 -34 15 -95 26 -136 23 -92
23 -96 2 -87 -28 11 -66 13 -85 3 -21 -10 -22 -5 -7 24 10 18 13 76 6 123 -12
82 -59 148 -126 178 -35 16 -71 22 -146 24 -91 2 -101 5 -116 25 -17 23 -73
187 -84 243 -27 141 -41 248 -47 353 -1 23 -5 42 -9 42 -5 0 -6 -17 -4 -37 2
-21 7 -68 10 -105 7 -73 8 -83 31 -206 19 -104 68 -259 95 -294 11 -16 16 -28
11 -28 -4 0 -17 -8 -28 -18 -11 -10 -31 -26 -45 -35 -25 -17 -26 -16 -57 17
-81 90 -156 224 -227 406 -20 52 -58 150 -85 216 -26 67 -58 162 -71 213 -13
50 -26 91 -30 91 -16 0 53 -209 141 -430 125 -313 162 -385 253 -486 l46 -51
-25 -24 c-55 -51 -67 -115 -37 -191 38 -96 157 -179 259 -182 l51 -1 -37 -36
c-47 -46 -70 -112 -77 -219 -6 -101 10 -170 60 -248 32 -51 229 -257 368 -386
97 -89 339 -327 409 -402 322 -342 599 -794 695 -1134 36 -128 93 -297 115
-340 20 -39 69 -87 117 -113 112 -61 232 58 249 246 10 119 11 152 1 171 -6
13 -6 16 2 12 7 -5 9 3 6 21 -2 15 -7 48 -9 73 -6 49 -7 55 -31 150 -26 102
-57 206 -92 309 -3 9 14 -11 37 -44 24 -33 65 -87 92 -120 196 -242 328 -362
560 -507 229 -144 415 -226 683 -301 219 -61 301 -72 520 -71 183 1 274 16
426 70 119 42 321 150 402 214 273 216 447 440 528 676 29 86 67 223 75 274 3
14 9 48 14 75 43 232 48 563 10 798 -5 34 -12 79 -15 100 -4 21 -21 97 -40
170 -110 440 -299 722 -588 877 -204 110 -477 154 -679 110 -127 -28 -262 -83
-353 -144 -18 -12 0 12 43 60 96 105 244 310 287 399 52 108 76 205 81 331 6
169 -25 299 -113 474 -196 388 -658 775 -1173 983 -111 44 -263 90 -344 103
-21 3 -48 8 -60 10 -29 6 -301 16 -307 10z m359 -423 c329 -69 588 -199 783
-393 143 -141 232 -289 277 -460 30 -113 33 -134 38 -280 4 -133 -8 -211 -44
-295 -68 -154 -79 -172 -157 -250 -441 -438 -1017 -782 -1643 -980 -280 -88
-401 -125 -410 -125 -5 0 -31 28 -57 61 -27 34 -59 73 -72 88 -103 116 -203
220 -287 298 l-98 93 -46 127 -45 128 -2 190 c-2 105 1 222 7 260 19 139 56
305 90 397 6 15 10 28 9 30 -3 8 70 173 113 255 40 78 129 220 165 265 183
228 356 374 566 478 209 103 354 138 568 138 98 0 157 -6 245 -25z m1707
-2057 c82 -9 208 -49 277 -88 194 -110 319 -303 374 -578 19 -94 28 -409 14
-495 -4 -27 -11 -74 -14 -104 -4 -29 -8 -56 -10 -60 -2 -3 -7 -28 -10 -55 -4
-27 -9 -53 -12 -58 -3 -5 -8 -21 -10 -36 -8 -45 -54 -192 -86 -271 -99 -249
-209 -395 -381 -505 -105 -67 -268 -125 -397 -141 -29 -4 -62 -9 -74 -11 -28
-6 -307 -6 -376 0 -69 6 -144 16 -260 35 -105 18 -119 20 -244 47 -65 14 -128
28 -141 30 -12 2 -135 42 -273 88 -457 153 -560 211 -611 347 -14 35 -33 83
-43 106 -10 24 -19 45 -19 47 -1 12 -160 329 -202 402 -24 43 -53 95 -64 114
-26 45 -104 171 -147 236 l-34 52 56 8 c31 4 64 9 72 10 8 1 58 12 110 24 52
12 102 23 110 25 248 53 692 204 959 327 225 102 477 244 620 348 64 47 131
73 266 107 80 19 94 22 135 29 19 3 40 7 47 9 7 2 45 7 85 11 40 3 74 7 75 8
5 4 152 -2 208 -8z"/>
<path d="M1193 5630 c-7 -10 -10 -26 -7 -34 3 -8 -8 -44 -25 -79 -36 -74 -90
-257 -121 -407 -20 -99 -40 -321 -27 -310 3 3 8 51 11 107 11 223 139 673 191
673 19 0 45 39 38 56 -8 21 -46 17 -60 -6z"/>
<path d="M640 5465 c-6 -8 -13 -24 -15 -37 -2 -13 -8 -47 -13 -77 -12 -68 -16
-241 -5 -241 4 0 7 42 6 92 -2 119 10 192 36 220 12 12 21 27 21 34 0 20 -17
25 -30 9z"/>
<path d="M608 5059 c2 -21 7 -39 11 -39 9 0 1 69 -8 74 -3 2 -5 -13 -3 -35z"/>
</g>
</svg>
